<?xml version="1.0" encoding="UTF-8" standalone="no"?>
<!-- Created with Inkscape (http://www.inkscape.org/) -->

<svg
   xmlns:dc="http://purl.org/dc/elements/1.1/"
   xmlns:cc="http://creativecommons.org/ns#"
   xmlns:rdf="http://www.w3.org/1999/02/22-rdf-syntax-ns#"
   xmlns:svg="http://www.w3.org/2000/svg"
   xmlns="http://www.w3.org/2000/svg"
   xmlns:sodipodi="http://sodipodi.sourceforge.net/DTD/sodipodi-0.dtd"
   xmlns:inkscape="http://www.inkscape.org/namespaces/inkscape"
   width="325.5"
   height="208"
   viewBox="0 0 86.121875 55.033335"
   version="1.1"
   id="svg8"
   sodipodi:docname="light-dark.svg"
   inkscape:version="0.92.3 (2405546, 2018-03-11)">
  <defs
     id="defs2" />
  <sodipodi:namedview
     id="base"
     pagecolor="#ffffff"
     bordercolor="#666666"
     borderopacity="1.0"
     inkscape:pageopacity="0.0"
     inkscape:pageshadow="2"
     inkscape:zoom="2"
     inkscape:cx="209.49155"
     inkscape:cy="125.307"
     inkscape:document-units="px"
     inkscape:current-layer="layer1"
     showgrid="false"
     units="px"
     inkscape:window-width="2400"
     inkscape:window-height="1271"
     inkscape:window-x="-9"
     inkscape:window-y="-9"
     inkscape:window-maximized="1" />
  <metadata
     id="metadata5">
    <rdf:RDF>
      <cc:Work
         rdf:about="">
        <dc:format>image/svg+xml</dc:format>
        <dc:type
           rdf:resource="http://purl.org/dc/dcmitype/StillImage" />
        <dc:title></dc:title>
      </cc:Work>
    </rdf:RDF>
  </metadata>
  <g
     inkscape:label="Layer 1"
     inkscape:groupmode="layer"
     id="layer1"
     transform="translate(0,-241.96665)">
    <rect
       style="fill:#ffffff;fill-opacity:0.95522383;fill-rule:nonzero;stroke:none;stroke-width:0.24653447;stroke-miterlimit:4;stroke-dasharray:none;stroke-opacity:0.2745098"
       id="rect837"
       width="86.12188"
       height="55.033333"
       x="0"
       y="241.96664" />
  </g>
  <g
     inkscape:groupmode="layer"
     id="layer2"
     inkscape:label="Layer 2">
    <g
       id="g4"
       transform="matrix(0.06704727,0,0,0.06704727,21.666778,2.6390917)"
       style="fill:#b7a500;fill-opacity:1">
      <path
         d="m 497.78,326.334 -51.395,-70.808 51.395,-70.804 c 1.711,-2.475 2.088,-5.232 1.14,-8.276 -0.767,-2.859 -2.669,-4.762 -5.712,-5.712 L 409.845,143.326 V 55.959 c 0,-3.044 -1.242,-5.519 -3.721,-7.421 -2.85,-1.902 -5.615,-2.284 -8.274,-1.143 L 314.483,74.231 263.092,3.427 C 261.378,1.143 258.905,0 255.667,0 c -3.234,0 -5.708,1.146 -7.422,3.427 L 196.851,74.232 113.483,47.396 c -2.662,-1.142 -5.424,-0.76 -8.28,1.143 -2.474,1.903 -3.711,4.377 -3.711,7.421 v 87.366 l -83.367,27.408 c -3.044,0.953 -4.947,2.856 -5.708,5.712 -0.95,3.044 -0.571,5.802 1.143,8.276 l 51.391,70.804 -51.391,70.808 c -1.714,2.282 -2.093,5.041 -1.143,8.278 0.76,2.847 2.664,4.753 5.708,5.712 l 83.367,27.407 v 87.364 c 0,3.043 1.237,5.521 3.711,7.423 2.856,1.903 5.618,2.283 8.28,1.144 l 83.368,-26.837 51.394,70.805 c 1.902,2.471 4.377,3.71 7.422,3.71 3.045,0 5.522,-1.239 7.424,-3.71 l 51.391,-70.805 83.371,26.837 c 2.659,1.143 5.421,0.76 8.271,-1.144 2.479,-1.902 3.721,-4.38 3.721,-7.423 v -87.364 l 83.363,-27.407 c 3.043,-0.955 4.945,-2.861 5.712,-5.712 0.955,-3.237 0.571,-5.996 -1.14,-8.278 z m -90.646,-6.995 c -8.661,20.27 -20.365,37.78 -35.114,52.534 -14.753,14.749 -32.261,26.456 -52.534,35.118 -20.266,8.657 -41.541,12.99 -63.811,12.99 -22.27,0 -43.537,-4.333 -63.81,-12.99 -20.27,-8.665 -37.782,-20.369 -52.532,-35.118 -14.75,-14.754 -26.455,-32.265 -35.117,-52.534 -8.66,-20.272 -12.99,-41.541 -12.99,-63.813 0,-22.27 4.331,-43.537 12.99,-63.81 8.658,-20.27 20.367,-37.781 35.117,-52.534 14.753,-14.749 32.262,-26.457 52.532,-35.115 20.27,-8.663 41.54,-12.99 63.81,-12.99 22.266,0 43.545,4.327 63.811,12.99 20.273,8.658 37.781,20.366 52.534,35.115 14.749,14.753 26.453,32.264 35.114,52.534 8.658,20.273 12.991,41.543 12.991,63.81 0,22.272 -4.336,43.54 -12.991,63.813 z"
         id="path2"
         inkscape:connector-curvature="0"
         style="fill:#b7a500;fill-opacity:1" />
    </g>
    <text
       xml:space="preserve"
       style="font-style:normal;font-variant:normal;font-weight:normal;font-stretch:normal;font-size:15.80232334px;line-height:1.25;font-family:'Segoe Script';-inkscape-font-specification:'Segoe Script, Normal';font-variant-ligatures:normal;font-variant-caps:normal;font-variant-numeric:normal;font-feature-settings:normal;text-align:start;letter-spacing:0px;word-spacing:0px;writing-mode:lr-tb;text-anchor:start;fill:#000000;fill-opacity:1;stroke:none;stroke-width:0.59258723"
       x="2.5038111"
       y="48.250816"
       id="text869"><tspan
         sodipodi:role="line"
         id="tspan867"
         x="2.5038111"
         y="48.250816"
         style="font-style:normal;font-variant:normal;font-weight:bold;font-stretch:normal;font-family:'Times New Roman';-inkscape-font-specification:'Times New Roman, Bold';fill:#b7a500;fill-opacity:1;stroke-width:0.59258723">Light Mode</tspan></text>
  </g>
</svg>
