<?xml version="1.0" ?>
<svg id="<%= playerName %>" class="piece" viewbox="0 0 15 32" width="3.75" height="8" version="1.1" xmlns="http://www.w3.org/2000/svg">
  <defs>
    <filter id="darken">
      <feComponentTransfer in="SourceGraphic">
        <feFuncR type="linear" slope="0.5"></feFuncR>
        <feFuncG type="linear" slope="0.5"></feFuncG>
        <feFuncB type="linear" slope="0.5"></feFuncB>
      </feComponentTransfer>
    </filter>
    <linearGradient id="shadow" x1="0%" y1="0%" x2="100%" y2="0%">
      <stop offset="0%" style="stop-color:rgb(0,0,0);stop-opacity:1;"></stop>
      <stop offset="100%" style="stop-color:rgb(0,0,0);stop-opacity:0;"></stop>
    </linearGradient>
  </defs>
  <symbol>
    <path d=" M 5 21.5
            a 5 18 0 0 1 10 0
            a 10 5 0 0 1 -10 0"
            id="body"></path>
  </symbol>
  <g transform="translate(-9 -12)
                rotate(-170 10 21.5)
                scale(1 0.5)
                skewX(-30)" fill="url(#shadow)">
    <use href="#body"></use>
  </g>
  <circle cx="10" cy="3.5" r="3.5" fill="#ffffff"></circle>
  <use href="#body" fill="#ffffff"></use>
  </g>
  <g fill="#ffffff" filter="url(#darken)">
    <path d=" M 12.5122 5.93698
              A 3.5 3.5 0 0 1 7.4878 5.93698
              A 6.31114 2.96849 0 0 0 12.5122 5.93698"></path>
    <path d=" M 6.5 8.64542
              A 5 18 0 0 0  5 21.5
              A 10 5 0 0 1 6.5 21.85361
              A 4.0944 12.72676 0 0 1 6.5 8.64542"></path>
  </g>
</svg>