<svg id="Layer_1" data-name="Layer 1" xmlns="http://www.w3.org/2000/svg" viewBox="0 0 514 155.96"><defs><style>.cls-1,.cls-2{fill:#2c282c;}.cls-2{font-size:27px;font-family:OpenSans, Open Sans;}.cls-3{fill:none;stroke:#000;stroke-miterlimit:10;}</style></defs><title>CBT_OS-logo</title><path id="Fill-1" class="cls-1" d="M27.14,112.06a72.46,72.46,0,0,1-8.36-22.87c-.26-1.6-.51-3.08-.64-4.55A63.4,63.4,0,0,1,18,76.22h0l-.51.53-.13.14-.5.53a.13.13,0,0,1-.13.13l-1.52,2A60.22,60.22,0,0,0,7,94.41c.13.4.38.93.51,1.34a61.22,61.22,0,0,0,7.72,13.5c.63.94,1.39,1.74,2,2.55l4.43.4c1.39,0,3.17,0,5.45-.14"/><path id="Fill-2" class="cls-1" d="M34,115.41c-1.52.26-2.91.53-4.3.67a55.56,55.56,0,0,1-8,.13h-.13c1,.94,2,1.87,3.17,2.81a55.33,55.33,0,0,0,14.06,8.69c.38-.13.88-.4,1.26-.53a55.78,55.78,0,0,0,12.67-8c.88-.67,1.64-1.47,2.53-2.14l.38-4.68a39.49,39.49,0,0,0,0-5.62A62.28,62.28,0,0,1,34,115.41"/><path id="Fill-3" class="cls-1" d="M50.44,76.62a72.42,72.42,0,0,1,8.35,22.87c.26,1.61.51,3.08.64,4.55a63.4,63.4,0,0,1,.12,8.42v.14c.89-1.07,1.78-2.14,2.66-3.35a60,60,0,0,0,8.24-14.84c-.13-.4-.38-.81-.51-1.34a61.33,61.33,0,0,0-7.73-13.51c-.63-.94-1.39-1.74-2-2.54l-4.43-.4a33.06,33.06,0,0,0-5.32,0"/><path id="Fill-4" class="cls-1" d="M52.84,69.66A55.44,55.44,0,0,0,38.79,61a12.56,12.56,0,0,1-1.27.53,56.84,56.84,0,0,0-12.79,8.16c-.76.67-1.65,1.34-2.41,2.14l-.38,4.68a40.78,40.78,0,0,0,0,5.49A64.39,64.39,0,0,1,43.6,73.14c1.52-.27,2.91-.53,4.3-.67a52.83,52.83,0,0,1,8-.13h0c-1-.8-2-1.74-3-2.68"/><path id="CrossBrowserTesting" class="cls-1" d="M103.29,110.43c6.4,0,10-3.69,12.08-7.53L110,100.13a7.75,7.75,0,0,1-6.84,4.46c-5.38,0-9.17-4.3-9.17-10.14s3.79-10.15,9.17-10.15A8.12,8.12,0,0,1,110,88.76L115.37,86c-2-3.84-5.83-7.53-12.08-7.53-8.74,0-15.58,6.46-15.58,15.83,0,9.69,6.84,16.14,15.58,16.14Zm21.24-.61V95.06c.88-1.38,3.35-2.46,5.24-2.46a4.52,4.52,0,0,1,1.6.16V87.07a8.72,8.72,0,0,0-6.69,3.53V87.53h-5.53v22.29Zm19.94.61c7,0,11.21-5.38,11.21-11.68s-4.22-11.68-11.21-11.68-11.06,5.38-11.06,11.68,4.08,11.68,11.06,11.68Zm0-5.22c-3.49,0-5.38-2.92-5.38-6.46,0-3.38,1.89-6.45,5.38-6.45s5.39,2.92,5.39,6.45c0,3.38-1.89,6.46-5.39,6.46Zm23,5.22c5.82,0,9.17-3.07,9.17-7.07,0-8.91-12.52-6.3-12.52-9.53,0-1.23,1.31-2.15,3.35-2.15a8.91,8.91,0,0,1,6.26,2.61l2.18-4.15a13.24,13.24,0,0,0-8.44-3.07c-5.53,0-8.59,3.23-8.59,7.07,0,8.76,12.52,5.84,12.52,9.38,0,1.38-1.17,2.3-3.5,2.3a11.82,11.82,0,0,1-7.27-3.07l-2.33,4.3c1.89,2,5.38,3.38,9.17,3.38Zm20.81,0c5.82,0,9.17-3.07,9.17-7.07,0-8.91-12.52-6.3-12.52-9.53,0-1.23,1.31-2.15,3.35-2.15a8.91,8.91,0,0,1,6.26,2.61l2.18-4.3a13.24,13.24,0,0,0-8.44-3.07c-5.53,0-8.59,3.22-8.59,7.07,0,8.76,12.52,5.84,12.52,9.37,0,1.39-1.17,2.31-3.49,2.31a11.8,11.8,0,0,1-7.28-3.08L179,106.9a13,13,0,0,0,9.32,3.53Zm190.36-.61V84.92h8.44V79.08H363.79v5.68h8.44v25.06Zm22.27.61a13.26,13.26,0,0,0,8.73-3.07l-2.48-3.84a8.39,8.39,0,0,1-5.53,2.15,5.81,5.81,0,0,1-6.11-4.92h15.72V99.37c0-7.23-4.22-12.15-10.63-12.15S389.7,92.45,389.7,98.9a10.83,10.83,0,0,0,11.21,11.53Zm4.8-13.83H395.37c.3-2.15,1.75-4.77,5.1-4.77a4.94,4.94,0,0,1,5.24,4.77Zm17,13.83c5.82,0,9.16-3.07,9.16-7.07,0-8.91-12.51-6.3-12.51-9.53,0-1.23,1.31-2.15,3.35-2.15A8.91,8.91,0,0,1,429,94.29l2.19-4.15a13.24,13.24,0,0,0-8.44-3.07c-5.53,0-8.59,3.23-8.59,7.07,0,8.76,12.51,5.84,12.51,9.38,0,1.38-1.16,2.3-3.49,2.3a11.82,11.82,0,0,1-7.27-3.07l-2.48,4.3a13.63,13.63,0,0,0,9.32,3.38Zm20.22,0a6.83,6.83,0,0,0,4.66-1.38l-1.16-4.46a3.12,3.12,0,0,1-1.89.62c-1.17,0-1.9-1.08-1.9-2.46v-10h4.22V87.53h-4.22V81.38h-5.53v6.15h-3.49v5.23h3.49v11.52c-.14,4,1.9,6.15,5.82,6.15Zm10.48-25.21a3.38,3.38,0,0,0,3.35-3.53,3.25,3.25,0,0,0-3.35-3.38,3.32,3.32,0,0,0-3.2,3.38,3.47,3.47,0,0,0,3.2,3.53Zm2.77,24.6V87.53h-5.53v22.29Zm25.32,0V94.14c0-4.3-2.18-7.07-6.84-7.07a9.89,9.89,0,0,0-7.42,3.38V87.53h-5.53v22.29h5.53V94.75a6.37,6.37,0,0,1,4.8-2.61c2.33,0,3.93,1.08,3.93,4.15v13.53Zm14.12,9.07c5.24,0,11.35-2,11.35-10.46V87.53h-5.53v2.92a8,8,0,0,0-6.55-3.38c-5.38,0-9.31,4-9.31,11.37s4.07,11.38,9.31,11.38a8.06,8.06,0,0,0,6.55-3.38v2.15c0,4.46-3.2,5.69-5.82,5.69a8,8,0,0,1-6.55-2.77l-2.47,4.15a12.65,12.65,0,0,0,9,3.23Zm1-14.45c-3.2,0-5.39-2.31-5.39-6.15s2.19-6.15,5.39-6.15a6.52,6.52,0,0,1,4.8,2.46V102a6,6,0,0,1-4.8,2.46Z"/><g id="Browser"><path id="Path" class="cls-1" d="M217.39,109.82c5.53,0,8.44-3.69,8.44-8.3,0-3.84-2.48-7.07-5.53-7.53,2.76-.62,4.94-3.23,4.94-7.07,0-4.15-2.76-7.84-8.44-7.84H201.52v30.74Zm-1.9-18.45h-7.71V84.92h7.71a3.14,3.14,0,0,1,3.35,3.22c.15,1.85-1.16,3.23-3.35,3.23Zm.29,12.76h-8V97.06h8a3.51,3.51,0,0,1,3.79,3.54c0,2.15-1.46,3.53-3.79,3.53Z"/><path id="Path-2" data-name="Path" class="cls-1" d="M236,109.82V95.06a7.08,7.08,0,0,1,5.24-2.61,3.94,3.94,0,0,1,1.46.15V87.07A8.74,8.74,0,0,0,236,90.6V87.53h-5.53v22.29Z"/><path id="Path-3" data-name="Path" class="cls-1" d="M256,110.43c7,0,11.21-5.38,11.21-11.68S262.94,87.07,256,87.07s-11.2,5.38-11.2,11.68S249,110.43,256,110.43Zm0-5.22c-3.49,0-5.38-2.92-5.38-6.46,0-3.38,1.89-6.45,5.38-6.45s5.39,2.92,5.39,6.45c0,3.38-1.89,6.46-5.39,6.46Z"/><path id="Path-4" data-name="Path" class="cls-1" d="M295.68,109.82l6.41-22.29h-5.82l-3.93,15.06-4.66-15.06h-4.95l-4.51,15.06-3.93-15.06h-5.82l6.4,22.29h6l4.51-15.22,4.51,15.22Z"/><path id="Path-5" data-name="Path" class="cls-1" d="M312.42,110.43c5.82,0,9.17-3.07,9.17-7.07,0-8.91-12.52-6.3-12.52-9.53,0-1.23,1.31-2.15,3.35-2.15a8.91,8.91,0,0,1,6.26,2.61l2.18-4.15a13.24,13.24,0,0,0-8.44-3.07c-5.53,0-8.59,3.23-8.59,7.07,0,8.76,12.52,5.84,12.52,9.38,0,1.38-1.16,2.3-3.49,2.3a11.85,11.85,0,0,1-7.28-3.07L303,106.9a14.19,14.19,0,0,0,9.46,3.53Z"/><path id="Path-6" data-name="Path" class="cls-1" d="M335.56,110.43a13.24,13.24,0,0,0,8.73-3.07l-2.47-3.84a8.41,8.41,0,0,1-5.53,2.15,5.8,5.8,0,0,1-6.11-4.92h15.71V99.37c0-7.23-4.22-12.15-10.62-12.15s-10.92,5.23-10.92,11.68c0,6.92,4.81,11.53,11.21,11.53Zm4.95-13.83H330.18a5.18,5.18,0,0,1,10.33,0Z"/><path id="Path-7" data-name="Path" class="cls-1" d="M355.35,109.82V95.06a7.08,7.08,0,0,1,5.24-2.61,4.8,4.8,0,0,1,1.6.15V87.07a8.7,8.7,0,0,0-6.69,3.53V87.53H350v22.29Z"/></g><path class="cls-1" d="M193.27,148.68a16,16,0,0,1-5-.85c-.38-.12-.5-.29-.5-.5a1.3,1.3,0,0,1,.1-.4l.64-1.92c.07-.24.19-.45.5-.45a1,1,0,0,1,.4.09,10.61,10.61,0,0,0,3.7.74c1,0,2.25-.53,2.25-1.69,0-.9-.71-1.35-1.44-1.68l-3.18-1.47a4.61,4.61,0,0,1-2.92-4.27c0-3,3-4.74,5.81-4.74a11.41,11.41,0,0,1,4.67,1c.38.16.52.33.52.54a1.25,1.25,0,0,1-.09.36l-.74,1.85c-.11.3-.26.42-.47.42a1,1,0,0,1-.43-.12,9,9,0,0,0-3.22-.75c-.95,0-2,.35-2,1.47,0,.75,1,1.23,1.54,1.49l2.73,1.23c1.87.86,3.08,2.14,3.08,4.3C199.24,146.69,196.52,148.68,193.27,148.68Z"/><path class="cls-1" d="M216.74,148.35c-.61,0-.76-.31-.78-1l-.26-8.14h0l-3.58,8.59a.75.75,0,0,1-.81.52h-.87a.86.86,0,0,1-.95-.55l-4.1-8.56h-.05l-.14,8.37c0,.67-.31.74-.81.74H202.4c-.6,0-.83-.21-.81-.76l.64-14.94c0-.57.28-.76.73-.76h1.71a.9.9,0,0,1,1,.64l5.24,10.72h.05l4.74-10.72a1,1,0,0,1,1-.64h1.66c.47,0,.64.17.66.6l.78,15.12c0,.48-.16.74-.64.74Z"/><path class="cls-1" d="M237.37,148.35h-2.66a.85.85,0,0,1-.92-.66l-.95-2.75H227l-.95,2.84a.69.69,0,0,1-.71.57h-2.7a.35.35,0,0,1-.38-.38.56.56,0,0,1,0-.28l5.64-15.2a.8.8,0,0,1,.81-.6h2.44a.82.82,0,0,1,.85.52l5.77,15.11a1.41,1.41,0,0,1,.07.36A.44.44,0,0,1,237.37,148.35Zm-5.55-6.26-1.49-4.67c-.17-.52-.31-1-.43-1.38h-.05c-.12.43-.26.9-.42,1.4l-1.5,4.65Z"/><path class="cls-1" d="M248.75,147.83l-3.3-5.05H244v4.91a.58.58,0,0,1-.64.66h-2.46c-.48,0-.67-.21-.67-.69v-15c0-.64.14-.81.78-.81h3.61c2,0,4.43.17,5.88,1.78a5.33,5.33,0,0,1,1.28,3.53,5.09,5.09,0,0,1-2.82,4.84v.05l3.89,5.55a.77.77,0,0,1,.14.4c0,.22-.19.31-.38.31h-2.77A1.12,1.12,0,0,1,248.75,147.83Zm-3.84-13.09H244V140h1.19a2.5,2.5,0,0,0,2.8-2.68C248,135.4,246.69,134.74,244.91,134.74Z"/><path class="cls-1" d="M267,132.49l-.19,1.87c0,.47-.36.59-.85.59h-4.18v12.78c0,.53-.07.62-.54.62h-2.68c-.5,0-.55-.07-.55-.57V135h-4.34c-.47,0-.66-.24-.66-.71v-1.75c0-.41.21-.6.64-.6h12.76C266.84,131.89,267,132.13,267,132.49Z"/><path class="cls-1" d="M274.69,148.35H270c-.57,0-.72-.24-.72-.83V132.58c0-.57.24-.69.79-.69h3.84c4.22,0,6.28,1.24,6.28,4a3.33,3.33,0,0,1-2.56,3.42v0a4,4,0,0,1,3.84,4.13C281.42,147.43,278.1,148.35,274.69,148.35Zm-.57-13.61H273v3.7h.9c1.78,0,2.58-.5,2.58-2C276.44,135.31,275.57,134.74,274.12,134.74Zm2.32,6.61a5.48,5.48,0,0,0-2.3-.33l-1.18,0v4.43h1.47a6,6,0,0,0,1.94-.24,1.94,1.94,0,0,0,1.23-1.92A2,2,0,0,0,276.44,141.35Z"/><path class="cls-1" d="M293.42,131.89c.47,0,.62.24.59.55l-.21,1.92c-.05.5-.36.59-.93.59h-5.74v3.54h5.39c.52,0,.71.26.71.64v1.73a.6.6,0,0,1-.69.68h-5.41v3.75h6.19c.43,0,.69.19.69.64v1.76a.58.58,0,0,1-.66.66h-9.2c-.55,0-.79-.14-.79-.74V132.56a.59.59,0,0,1,.62-.67Z"/><path class="cls-1" d="M310.94,148.35h-2.65a.86.86,0,0,1-.93-.66l-.95-2.75h-5.85l-.95,2.84a.71.71,0,0,1-.72.57h-2.7a.35.35,0,0,1-.38-.38.56.56,0,0,1,.05-.28l5.64-15.2a.81.81,0,0,1,.81-.6h2.44a.84.84,0,0,1,.86.52l5.76,15.11a1.08,1.08,0,0,1,.07.36A.44.44,0,0,1,310.94,148.35Zm-5.55-6.26-1.49-4.67c-.17-.52-.31-1-.43-1.38h-.05c-.11.43-.26.9-.42,1.4l-1.5,4.65Z"/><path class="cls-1" d="M322,147.83l-3.3-5.05H317.2v4.91a.58.58,0,0,1-.64.66h-2.47c-.47,0-.66-.21-.66-.69v-15c0-.64.14-.81.78-.81h3.61c2,0,4.43.17,5.88,1.78A5.33,5.33,0,0,1,325,137.2a5.09,5.09,0,0,1-2.82,4.84v.05l3.88,5.55a.71.71,0,0,1,.15.4c0,.22-.19.31-.38.31H323A1.11,1.11,0,0,1,322,147.83Zm-3.85-13.09h-.92V140h1.18a2.49,2.49,0,0,0,2.8-2.68C321.18,135.4,319.9,134.74,318.12,134.74Z"/><text class="cls-2" transform="translate(135.86 28.13)">Testing Courtesy of</text><line class="cls-3" x1="223.96" y1="55.97" x2="290.04" y2="55.97"/></svg>