<?xml version="1.0" encoding="UTF-8" standalone="no"?>
<svg
   xmlns:dc="http://purl.org/dc/elements/1.1/"
   xmlns:cc="http://creativecommons.org/ns#"
   xmlns:rdf="http://www.w3.org/1999/02/22-rdf-syntax-ns#"
   xmlns:svg="http://www.w3.org/2000/svg"
   xmlns="http://www.w3.org/2000/svg"
   xmlns:sodipodi="http://sodipodi.sourceforge.net/DTD/sodipodi-0.dtd"
   xmlns:inkscape="http://www.inkscape.org/namespaces/inkscape"
   id="Layer_1"
   data-name="Layer 1"
   viewBox="0 0 512 512"
   version="1.1"
   sodipodi:docname="fireworks-gold.svg"
   inkscape:version="0.92.3 (2405546, 2018-03-11)">
  <metadata
     id="metadata13">
    <rdf:RDF>
      <cc:Work
         rdf:about="">
        <dc:format>image/svg+xml</dc:format>
        <dc:type
           rdf:resource="http://purl.org/dc/dcmitype/StillImage" />
        <dc:title>fireworks4</dc:title>
      </cc:Work>
    </rdf:RDF>
  </metadata>
  <defs
     id="defs11" />
  <sodipodi:namedview
     pagecolor="#ffffff"
     bordercolor="#666666"
     borderopacity="1"
     objecttolerance="10"
     gridtolerance="10"
     guidetolerance="10"
     inkscape:pageopacity="0"
     inkscape:pageshadow="2"
     inkscape:window-width="1920"
     inkscape:window-height="1017"
     id="namedview9"
     showgrid="false"
     inkscape:zoom="0.4609375"
     inkscape:cx="218.0339"
     inkscape:cy="256"
     inkscape:window-x="-8"
     inkscape:window-y="-8"
     inkscape:window-maximized="1"
     inkscape:current-layer="Layer_1" />
  <title
     id="title2">fireworks4</title>
  <path
     d="m 499.8595,224.8606 c -23.85861,-6.92844 -47.7361,-22.70369 -69.64899,-20.80396 26.91885,-5.79233 60.80827,-21.43721 81.66329,5.14046 1.0012,6.85394 -4.04254,16.66924 -12.0143,15.6635 z m -59.9582,70.53233 c 24.85979,10.87691 26.76772,47.19539 54.6311,52.1496 21.95067,-10.74655 0,-26.50318 -6.83833,-37.24972 -14.92344,-8.9213 -33.83275,-18.79248 -47.79277,-14.89988 z m 59.84486,-35.20098 c -10.88089,-21.62345 -40.78443,-12.86977 -59.73152,-11.93853 14.9801,-0.93124 44.71363,41.27268 59.7504,11.93853 z M 471.31607,114.7877 c -5.93159,-13.76376 -20.89281,-4.95421 -30.84807,-7.93419 -17.92701,7.80382 -43.88245,20.48734 -45.92262,38.16234 20.96838,-20.56185 71.67027,4.13471 76.77069,-30.22815 z m -72.50145,272.79826 c 8.93517,12.77666 7.87731,45.1839 28.73234,52.1496 6.00715,-1.86248 8.99184,-4.87972 9.01073,-11.7709 -1.94572,-17.69362 -21.79955,-34.45599 -37.74307,-40.3787 z M 415.816,335.58537 c -12.88327,-23.59769 -39.66989,-30.54476 -64.64302,-35.53623 20.8928,14.78814 29.7713,42.29705 52.6476,54.14246 6.06384,-2.90548 16.03797,-8.79093 12.07098,-18.60623 z M 353.47761,196.96056 c 15.94351,-9.77804 57.72913,9.98293 59.7693,-16.53886 -10.91867,-7.89695 -16.88804,-7.89695 -30.84807,-4.99146 -9.89858,6.87256 -33.87053,13.67064 -28.84567,21.53032 z m 52.59094,65.932 c -15.90574,-14.78814 -41.78562,-21.71659 -61.71502,-11.95716 19.91051,2.01148 33.81386,21.67933 51.72198,28.60777 A 13.960023,13.763769 0 0 0 406.1441,262.91118 Z M 394.73429,43.882878 c -3.98588,-7.878314 -11.93874,-7.878314 -18.89042,-7.915563 -23.93417,12.702151 -30.9614,36.262593 -34.00276,58.835919 16.00018,-15.738003 48.88841,-26.372796 52.96874,-50.920356 z M 369.57224,488.64443 c 23.97195,-23.50457 -1.88904,-56.95481 -18.72041,-75.67279 16.96361,24.62206 -16.03797,67.71998 18.79598,75.67279 z m -1.00119,-353.51838 c 2.02128,-12.73941 -12.95883,-4.93559 -19.9105,-6.92845 -10.97534,7.82244 -35.89181,26.42867 -27.97671,37.24971 15.03677,-9.77805 41.95562,-10.69067 47.98167,-30.30264 z M 303.3802,321.5236 c 12.90216,15.738 11.86319,36.37434 20.77947,54.01209 7.93398,4.91695 21.91289,2.0301 19.96718,-9.75943 -3.9481,-18.51311 -20.83614,-40.24832 -40.74665,-44.25266 z m 19.24934,-115.80936 c -21.894,-1.04299 -43.84467,8.71644 -52.89319,28.34704 16.0002,-11.75228 39.87769,-5.79233 57.82359,-13.59614 2.07795,-6.87258 -2.96579,-9.83393 -4.9304,-14.7509 z m -45.88484,47.00914 35.74069,40.36007 a 13.978914,13.782393 0 0 0 9.99303,-16.76238 C 311.52198,263.61892 296.61743,250.80503 276.7447,252.72338 Z M 316.26347,10.283638 c -9.93636,-7.8969382 -21.87511,-7.934188 -28.88346,4.823838 -6.04494,24.528935 -9.08629,44.159533 1.88904,65.801616 -1.07675,-21.586208 26.88108,-46.077894 26.93775,-70.606829 z m -6.13938,417.308512 c -2.94691,-13.76376 -12.8455,-35.38722 -18.89043,-35.38722 l -0.11335,40.24832 c -1.02007,7.85968 2.94692,17.6936 13.90336,13.78238 8.99185,-2.90547 3.04136,-12.72077 5.04374,-18.62485 z m -1.09565,-318.14978 -14.90455,-6.92844 c -22.93297,8.79093 -15.11233,41.21679 -17.11472,55.87456 10.93756,-16.57612 25.93655,-30.30264 31.9626,-48.94612 z M 285.94434,512 c 17.00138,-4.86109 11.03201,-34.34423 -4.85484,-47.13951 1.92683,13.74514 -4.09922,31.4015 4.85484,47.13951 z m 5.45934,-178.70549 c -6.93279,-8.86543 -5.91271,-24.56618 -18.89043,-26.55905 13.90335,15.73801 -8.06621,36.29985 8.82182,50.10087 14.99901,1.02436 8.04733,-15.70075 10.06861,-23.54182 z M 191.17108,203.40476 v 16.76238 l 54.78223,7.02157 c -15.94352,-12.8884 -29.86575,-30.58202 -54.78223,-23.78395 z m 35.45734,146.39137 h 11.95763 c 9.01073,-15.68213 -7.87731,-33.41299 5.11931,-47.12088 -14.999,9.83392 -21.98846,29.4459 -17.07694,47.12088 z m -7.42394,155.14505 13.96002,1.99286 c 9.99304,-15.68213 -8.85961,-34.38148 7.12169,-47.10226 l -8.99184,4.87972 c -8.02844,11.7709 -14.999,23.52319 -12.10877,40.22968 z M 215.42639,99.366324 c -19.98607,16.631996 15.83018,37.342836 21.74288,57.010676 4.02366,-11.7709 1.09565,-29.44589 0.11334,-38.2927 -3.98588,-6.87257 -10.97534,-19.667849 -21.91289,-18.699355 z m 23.46191,148.328356 -18.89042,2.90547 c -10.97534,7.84106 -30.90474,13.67065 -28.97792,30.37714 23.80194,19.72372 28.88346,-22.51745 47.81166,-33.26399 z M 229.51865,21.849674 C 224.56935,12.984243 223.60594,-1.7480182 208.73918,0.17034199 182.74596,24.643402 225.51388,48.352844 225.43832,75.843131 c 7.97176,-14.713636 3.06024,-36.337094 4.08033,-53.993457 z m -1.02009,363.315056 c -17.92701,11.75229 -25.01092,36.2626 -21.08171,55.87457 h 17.00138 c 1.00119,-18.56898 -3.91031,-40.17382 4.09923,-55.87457 z m -49.7007,-40.39731 c -1.0012,8.82818 -9.99303,20.48734 0,28.45878 22.93297,-4.84247 17.00138,-38.23682 34.00276,-54.88745 -13.99781,3.8926 -24.97313,14.65776 -33.98387,26.42867 z M 148.57318,127.65748 c -2.04016,25.53468 33.83275,22.68507 49.71959,37.45458 l -1.98349,-11.78953 C 184.37054,138.55302 168.48369,118.88517 148.5354,127.65748 Z M 174.5853,97.298964 C 169.67378,71.727038 160.81418,32.447217 126.96254,33.34121 106.9009,64.705467 164.66783,71.745662 174.54751,97.298964 Z M 138.31569,243.50408 c -14.94233,1.86249 -38.8765,10.69067 -28.97791,30.35852 26.88106,4.99145 35.8918,-29.3714 59.84486,-28.32841 -10.99424,-3.92984 -16.96361,-1.99286 -30.90474,-2.01148 z m 16.45355,173.8444 c -11.99542,19.61198 -27.99561,44.12228 -14.13004,68.7071 3.98588,-0.9685 7.95287,1.00574 11.95764,1.99285 22.93297,-22.51744 -6.83833,-57.96055 16.13242,-79.5095 z M 100.6104,172.711 c -7.102803,37.28697 47.81166,5.06597 64.68081,18.82973 C 148.44094,172.82275 125.50797,170.81127 100.6104,172.711 Z m 64.39745,124.89829 h -11.95764 c -23.91528,8.7723 -53.818815,16.53887 -55.915652,46.97188 37.799742,20.69221 36.042922,-37.24971 67.892182,-46.99051 z m -45.33701,-158.31128 -4.9493,-9.83392 C 96.851201,114.69458 71.009103,93.015247 43.089056,108.66013 c 0.850069,38.3672 59.674844,11.02591 76.543994,30.71239 z M 80.964355,433.86873 c 28.883455,1.04299 20.023855,-34.32561 36.005155,-49.002 l -26.937751,13.67065 c -4.080331,9.79667 -18.002574,24.49169 -9.067404,35.33135 z m 2.64466,-233.74194 -9.936363,-6.90982 C 47.754991,194.12959 14.942325,180.30995 0,204.80164 c 18.777081,35.44309 51.759761,-12.59041 83.609015,-4.67485 z m -71.878062,58.70555 c 19.853835,24.60343 42.862371,-13.61478 66.796538,-13.57752 L 54.631105,240.28199 C 39.669889,245.19894 13.8089,238.2705 11.730953,258.86959 Z m 4.760387,85.43221 C 44.392495,339.44071 54.442201,303.14087 76.411764,290.43872 51.514185,289.3771 32.5482,303.085 13.582215,317.76138 11.560939,328.63829 8.5006906,335.455 16.49134,344.32043 Z"
     id="path6"
     inkscape:connector-curvature="0"
     style="fill:#bd9657;stroke-width:1.87571692" />
</svg>
