<?xml version="1.0" encoding="UTF-8" standalone="no"?>
<!-- Generator: Adobe Illustrator 16.0.0, SVG Export Plug-In . SVG Version: 6.00 Build 0)  -->

<svg
   xmlns:dc="http://purl.org/dc/elements/1.1/"
   xmlns:cc="http://creativecommons.org/ns#"
   xmlns:rdf="http://www.w3.org/1999/02/22-rdf-syntax-ns#"
   xmlns:svg="http://www.w3.org/2000/svg"
   xmlns="http://www.w3.org/2000/svg"
   xmlns:sodipodi="http://sodipodi.sourceforge.net/DTD/sodipodi-0.dtd"
   xmlns:inkscape="http://www.inkscape.org/namespaces/inkscape"
   version="1.1"
   id="Capa_1"
   x="0px"
   y="0px"
   width="511.34px"
   height="511.34px"
   viewBox="0 0 511.34 511.34"
   style="enable-background:new 0 0 511.34 511.34;"
   xml:space="preserve"
   sodipodi:docname="sun.svg"
   inkscape:version="0.92.3 (2405546, 2018-03-11)"><metadata
   id="metadata41"><rdf:RDF><cc:Work
       rdf:about=""><dc:format>image/svg+xml</dc:format><dc:type
         rdf:resource="http://purl.org/dc/dcmitype/StillImage" /></cc:Work></rdf:RDF></metadata><defs
   id="defs39" /><sodipodi:namedview
   pagecolor="#ffffff"
   bordercolor="#666666"
   borderopacity="1"
   objecttolerance="10"
   gridtolerance="10"
   guidetolerance="10"
   inkscape:pageopacity="0"
   inkscape:pageshadow="2"
   inkscape:window-width="958"
   inkscape:window-height="991"
   id="namedview37"
   showgrid="false"
   inkscape:zoom="0.46153245"
   inkscape:cx="-4805.9145"
   inkscape:cy="255.67"
   inkscape:window-x="-29600"
   inkscape:window-y="-32000"
   inkscape:window-maximized="0"
   inkscape:current-layer="Capa_1" />
<g
   id="g4"
   transform="translate(-5117.7334,-10.83347)">
	<path
   d="m 497.78,326.334 -51.395,-70.808 51.395,-70.804 c 1.711,-2.475 2.088,-5.232 1.14,-8.276 -0.767,-2.859 -2.669,-4.762 -5.712,-5.712 L 409.845,143.326 V 55.959 c 0,-3.044 -1.242,-5.519 -3.721,-7.421 -2.85,-1.902 -5.615,-2.284 -8.274,-1.143 L 314.483,74.231 263.092,3.427 C 261.378,1.143 258.905,0 255.667,0 c -3.234,0 -5.708,1.146 -7.422,3.427 L 196.851,74.232 113.483,47.396 c -2.662,-1.142 -5.424,-0.76 -8.28,1.143 -2.474,1.903 -3.711,4.377 -3.711,7.421 v 87.366 l -83.367,27.408 c -3.044,0.953 -4.947,2.856 -5.708,5.712 -0.95,3.044 -0.571,5.802 1.143,8.276 l 51.391,70.804 -51.391,70.808 c -1.714,2.282 -2.093,5.041 -1.143,8.278 0.76,2.847 2.664,4.753 5.708,5.712 l 83.367,27.407 v 87.364 c 0,3.043 1.237,5.521 3.711,7.423 2.856,1.903 5.618,2.283 8.28,1.144 l 83.368,-26.837 51.394,70.805 c 1.902,2.471 4.377,3.71 7.422,3.71 3.045,0 5.522,-1.239 7.424,-3.71 l 51.391,-70.805 83.371,26.837 c 2.659,1.143 5.421,0.76 8.271,-1.144 2.479,-1.902 3.721,-4.38 3.721,-7.423 v -87.364 l 83.363,-27.407 c 3.043,-0.955 4.945,-2.861 5.712,-5.712 0.955,-3.237 0.571,-5.996 -1.14,-8.278 z m -90.646,-6.995 c -8.661,20.27 -20.365,37.78 -35.114,52.534 -14.753,14.749 -32.261,26.456 -52.534,35.118 -20.266,8.657 -41.541,12.99 -63.811,12.99 -22.27,0 -43.537,-4.333 -63.81,-12.99 -20.27,-8.665 -37.782,-20.369 -52.532,-35.118 -14.75,-14.754 -26.455,-32.265 -35.117,-52.534 -8.66,-20.272 -12.99,-41.541 -12.99,-63.813 0,-22.27 4.331,-43.537 12.99,-63.81 8.658,-20.27 20.367,-37.781 35.117,-52.534 14.753,-14.749 32.262,-26.457 52.532,-35.115 20.27,-8.663 41.54,-12.99 63.81,-12.99 22.266,0 43.545,4.327 63.811,12.99 20.273,8.658 37.781,20.366 52.534,35.115 14.749,14.753 26.453,32.264 35.114,52.534 8.658,20.273 12.991,41.543 12.991,63.81 0,22.272 -4.336,43.54 -12.991,63.813 z"
   id="path2"
   inkscape:connector-curvature="0" />
</g>
<g
   id="g6">
</g>
<g
   id="g8">
</g>
<g
   id="g10">
</g>
<g
   id="g12">
</g>
<g
   id="g14">
</g>
<g
   id="g16">
</g>
<g
   id="g18">
</g>
<g
   id="g20">
</g>
<g
   id="g22">
</g>
<g
   id="g24">
</g>
<g
   id="g26">
</g>
<g
   id="g28">
</g>
<g
   id="g30">
</g>
<g
   id="g32">
</g>
<g
   id="g34">
</g>
</svg>