<svg height="512pt" viewBox="-13 0 512 512" width="512pt" xmlns="http://www.w3.org/2000/svg"><path d="m260.003906 33.515625v-25.972656c0-4.164063-3.378906-7.542969-7.546875-7.542969h-37.234375c-4.164062 0-7.542968 3.378906-7.542968 7.542969v25.972656zm0 0" fill="#af5c0b"/><path d="m207.679688 77.703125h52.324218v21.746094h-52.324218zm0 0" fill="#af5c0b"/><path d="m207.679688 333.027344v40.832031c0 4.167969 3.378906 7.542969 7.542968 7.542969v1.777344h37.234375v-1.359376c4.167969 0 7.546875-3.378906 7.546875-7.542968v-41.25zm0 0" fill="#af5c0b"/><path d="m485.253906 205.292969c-.332031-3.144531-2.589844-5.746094-5.652344-6.519531-.816406-.207032-20.175781-4.871094-39.167968 9.917968-23.292969 18.140625-35.101563 56.332032-35.101563 113.511719 0 8.683594-3.578125 15.988281-10.9375 22.339844-23.316406 20.117187-81.921875 29.078125-169.472656 25.914062-57.054687-2.0625-109.417969-8.789062-124.371094-10.835937-3.550781-8.5-12.496093-28.765625-25.101562-49.296875-22.738281-37.03125-45.582031-55.808594-67.90625-55.808594-2.523438 0-4.882813 1.261719-6.28125 3.367187-1.398438 2.101563-1.652344 4.765626-.675781 7.097657.210937.5 20.878906 50.417969 13.917968 88.554687-.898437 4.933594-1.941406 10.167969-3.046875 15.707032-7.945312 39.875-17.835937 89.5 6.101563 118.929687 12.175781 14.972656 31.785156 22.675781 58.277344 22.902344 72.957031.617187 137.554687.925781 193.425781.925781 55.882812 0 103.035156-.308594 141.039062-.925781 31.378907-.511719 44.320313-12.050781 51.328125-20.683594 13.535156-16.683594 28.855469-52.671875 5.753906-172.078125-.289062-1.953125-3.628906-25.019531-3.285156-49.480469.4375-30.90625 6.472656-50.785156 16.992188-55.980469 2.835937-1.398437 4.496094-4.414062 4.164062-7.558593zm0 0" fill="#be6904"/><path d="m52.316406 310.324219c12.605469 20.53125 21.550782 40.796875 25.097656 49.296875 14.953126 2.050781 38.089844 2.050781 23.136719 0-3.550781-8.5-12.496093-28.765625-25.101562-49.296875-22.738281-37.03125-45.582031-55.808594-67.90625-55.808594-2.523438 0-4.882813 1.261719-6.28125 3.367187-.027344.039063-.046875.085938-.074219.125 16.925781 7.003907 34.058594 24.515626 51.128906 52.316407zm0 0" fill="#af5c0b"/><path d="m485.253906 205.292969c-.332031-3.144531-2.589844-5.746094-5.652344-6.519531-.550781-.140626-9.527343-2.292969-21.132812.835937 2.007812 1.195313 3.398438 3.277344 3.652344 5.683594.332031 3.144531-1.332032 6.160156-4.164063 7.558593-10.523437 5.191407-16.558593 25.074219-16.996093 55.980469-.34375 24.460938 2.996093 47.527344 3.285156 49.476563 23.105468 119.410156 7.78125 155.394531-5.753906 172.082031-7.007813 8.632813-19.949219 20.171875-51.324219 20.683594-35.386719.574219-78.703125.878906-129.609375.921875 3.9375 0 7.847656.003906 11.703125.003906 55.882812 0 103.03125-.308594 141.039062-.925781 31.375-.511719 44.320313-12.050781 51.324219-20.683594 13.539062-16.683594 28.859375-52.671875 5.757812-172.078125-.292968-1.953125-3.628906-25.019531-3.285156-49.480469.433594-30.90625 6.46875-50.785156 16.992188-55.980469 2.835937-1.398437 4.496094-4.414062 4.164062-7.558593zm0 0" fill="#af5c0b"/><path d="m324.234375 98.566406c-5.160156-2.285156-10.671875-3.445312-16.375-3.445312h-196.113281c-4.164063 0-7.542969 3.378906-7.542969 7.546875v1.859375c0 2.855468 1.613281 5.46875 4.167969 6.746094 39.683594 19.855468 64.332031 59.722656 64.332031 104.050781 0 44.332031-24.648437 84.199219-64.332031 104.050781-2.554688 1.277344-4.167969 3.890625-4.167969 6.75v4.980469c0 2.007812.796875 3.929687 2.21875 5.34375 1.414063 1.410156 3.328125 2.203125 5.324219 2.203125h.023437l196.238281-.640625c5.519532-.015625 10.84375-.988281 15.824219-2.894531 47.238281-18.050782 76.582031-64.464844 76.582031-121.132813 0-77.730469-63.457031-109.78125-76.179687-115.417969zm0 0" fill="#f3d9ab"/><path d="m324.234375 98.566406c-5.160156-2.285156-10.671875-3.445312-16.375-3.445312h-23.132813c5.703126 0 11.210938 1.160156 16.375 3.445312 12.71875 5.636719 76.179688 37.6875 76.179688 115.417969 0 56.664063-29.347656 103.078125-76.582031 121.132813-4.984375 1.902343-10.308594 2.878906-15.824219 2.894531l-174.105469.566406c.320313.042969.648438.070313.976563.070313h.027344l196.234374-.636719c5.519532-.015625 10.84375-.992188 15.824219-2.894531 47.238281-18.054688 76.582031-64.46875 76.582031-121.132813 0-77.730469-63.457031-109.78125-76.179687-115.417969zm0 0" fill="#e8cea6"/><path d="m252.5 28.421875h-96.558594c-4.167968 0-7.542968 3.378906-7.542968 7.542969v38.875c0 4.167968 3.375 7.542968 7.542968 7.542968h96.558594c4.167969 0 7.546875-3.375 7.546875-7.542968v-38.875c0-4.164063-3.378906-7.542969-7.546875-7.542969zm0 0" fill="#bd3d36"/><path d="m252.5 28.421875h-23.132812c4.164062 0 7.542968 3.378906 7.542968 7.542969v38.875c0 4.167968-3.378906 7.542968-7.542968 7.542968h23.132812c4.167969 0 7.546875-3.375 7.546875-7.542968v-38.875c0-4.164063-3.378906-7.542969-7.546875-7.542969zm0 0" fill="#b6261b"/><path d="m350.566406 154.078125h-119.1875c-4.167968 0-7.542968-3.378906-7.542968-7.546875 0-4.164062 3.375-7.542969 7.542968-7.542969h119.1875c4.167969 0 7.546875 3.378907 7.546875 7.542969 0 4.167969-3.378906 7.546875-7.546875 7.546875zm0 0" fill="#f3eeeb"/><path d="m307.109375 280.117188h-110.695313c-4.164062 0-7.542968-3.378907-7.542968-7.546876 0-4.164062 3.378906-7.542968 7.542968-7.542968h110.695313c4.164063 0 7.542969 3.378906 7.542969 7.542968 0 4.167969-3.378906 7.546876-7.542969 7.546876zm0 0" fill="#f3eeeb"/><g fill="#af5c0b"><path d="m156.972656 432.910156h-122.714844c-4.167968 0-7.542968-3.378906-7.542968-7.542968 0-4.167969 3.375-7.542969 7.542968-7.542969h122.714844c4.164063 0 7.542969 3.375 7.542969 7.542969 0 4.164062-3.378906 7.542968-7.542969 7.542968zm0 0"/><path d="m156.972656 463.128906h-122.714844c-4.167968 0-7.542968-3.378906-7.542968-7.542968 0-4.167969 3.375-7.542969 7.542968-7.542969h122.714844c4.164063 0 7.542969 3.375 7.542969 7.542969 0 4.164062-3.378906 7.542968-7.542969 7.542968zm0 0"/><path d="m447.339844 432.910156h-122.714844c-4.167969 0-7.542969-3.378906-7.542969-7.542968 0-4.167969 3.375-7.542969 7.542969-7.542969h122.714844c4.164062 0 7.542968 3.375 7.542968 7.542969 0 4.164062-3.378906 7.542968-7.542968 7.542968zm0 0"/><path d="m289.070312 463.128906h-92.570312c-4.164062 0-7.542969-3.378906-7.542969-7.542968 0-4.167969 3.378907-7.542969 7.542969-7.542969h92.570312c4.164063 0 7.542969 3.375 7.542969 7.542969 0 4.164062-3.378906 7.542968-7.542969 7.542968zm0 0"/><path d="m447.339844 463.128906h-127.824219c-4.167969 0-7.546875-3.378906-7.546875-7.542968 0-4.167969 3.378906-7.542969 7.546875-7.542969h127.824219c4.164062 0 7.542968 3.375 7.542968 7.542969 0 4.164062-3.378906 7.542968-7.542968 7.542968zm0 0"/></g><path d="m314.351562 404.070312c-20.292968 0-36.800781 16.507813-36.800781 36.796876 0 20.292968 16.507813 36.800781 36.800781 36.800781 20.289063 0 36.796876-16.507813 36.796876-36.800781 0-20.289063-16.507813-36.796876-36.796876-36.796876zm0 0" fill="#99e8ed"/><path d="m167.246094 404.070312c-20.292969 0-36.800782 16.507813-36.800782 36.796876 0 20.292968 16.507813 36.800781 36.800782 36.800781 20.289062 0 36.800781-16.507813 36.800781-36.800781 0-20.289063-16.511719-36.796876-36.800781-36.796876zm0 0" fill="#99e8ed"/><path d="m314.351562 404.070312c-4.042968 0-7.929687.664063-11.566406 1.871094 14.636719 4.863282 25.230469 18.675782 25.230469 34.925782 0 16.253906-10.59375 30.066406-25.230469 34.929687 3.636719 1.207031 7.523438 1.871094 11.566406 1.871094 20.289063 0 36.796876-16.507813 36.796876-36.800781 0-20.289063-16.507813-36.796876-36.796876-36.796876zm0 0" fill="#64dae9"/><path d="m167.246094 404.070312c-4.039063 0-7.925782.664063-11.566406 1.871094 14.636718 4.863282 25.230468 18.675782 25.230468 34.925782 0 16.253906-10.59375 30.066406-25.230468 34.929687 3.640624 1.207031 7.527343 1.871094 11.566406 1.871094 20.289062 0 36.800781-16.507813 36.800781-36.800781 0-20.289063-16.511719-36.796876-36.800781-36.796876zm0 0" fill="#64dae9"/></svg>